HIERARCHY
ROOT root
{
	OFFSET 0.000000 0.000000 0.000000
	CHANNELS 6 Xposition Yposition Zposition Zrotation Yrotation Xrotation
	JOINT lhip
	{
		OFFSET 0.058581 -0.082280 -0.017664
		CHANNELS 3 Zrotation Yrotation Xrotation
		JOINT lknee
		{
			OFFSET 0.043451 -0.386469 0.008037
			CHANNELS 3 Zrotation Yrotation Xrotation
			JOINT lankle
			{
				OFFSET -0.014790 -0.426874 -0.037428
				CHANNELS 3 Zrotation Yrotation Xrotation
				JOINT ltoe
				{
					OFFSET 0.041054 -0.060286 0.122042
					CHANNELS 3 Zrotation Yrotation Xrotation
					End Site
					{
						OFFSET 0.000000 0.000000 0.000000
					}
				}
			}
		}
	}
	JOINT rhip
	{
		OFFSET -0.060310 -0.090513 -0.013543
		CHANNELS 3 Zrotation Yrotation Xrotation
		JOINT rknee
		{
			OFFSET -0.043257 -0.383688 -0.004843
			CHANNELS 3 Zrotation Yrotation Xrotation
			JOINT rankle
			{
				OFFSET 0.019056 -0.420046 -0.034562
				CHANNELS 3 Zrotation Yrotation Xrotation
				JOINT rtoe
				{
					OFFSET -0.034840 -0.062106 0.130323
					CHANNELS 3 Zrotation Yrotation Xrotation
					End Site
					{
						OFFSET 0.000000 0.000000 0.000000
					}
				}
			}
		}
	}
	JOINT lowerback
	{
		OFFSET 0.004439 0.124404 -0.038385
		CHANNELS 3 Zrotation Yrotation Xrotation
		JOINT upperback
		{
			OFFSET 0.004488 0.137956 0.026820
			CHANNELS 3 Zrotation Yrotation Xrotation
			JOINT chest
			{
				OFFSET -0.002265 0.056032 0.002855
				CHANNELS 3 Zrotation Yrotation Xrotation
				JOINT lowerneck
				{
					OFFSET -0.013390 0.211636 -0.033468
					CHANNELS 3 Zrotation Yrotation Xrotation
					JOINT upperneck
					{
						OFFSET 0.010113 0.088937 0.050410
						CHANNELS 3 Zrotation Yrotation Xrotation
						End Site
						{
							OFFSET 0.000000 0.000000 0.000000
						}
					}
				}
				JOINT lclavicle
				{
					OFFSET 0.071702 0.114000 -0.018898
					CHANNELS 3 Zrotation Yrotation Xrotation
					JOINT lshoulder
					{
						OFFSET 0.122921 0.045205 -0.019046
						CHANNELS 3 Zrotation Yrotation Xrotation
						JOINT lelbow
						{
							OFFSET 0.255332 -0.015649 -0.022946
							CHANNELS 3 Zrotation Yrotation Xrotation
							JOINT lwrist
							{
								OFFSET 0.265709 0.012698 -0.007375
								CHANNELS 3 Zrotation Yrotation Xrotation
								End Site
								{
									OFFSET 0.000000 0.000000 0.000000
								}
							}
						}
					}
				}
				JOINT rclavicle
				{
					OFFSET -0.082954 0.112472 -0.023707
					CHANNELS 3 Zrotation Yrotation Xrotation
					JOINT rshoulder
					{
						OFFSET -0.113228 0.046853 -0.008472
						CHANNELS 3 Zrotation Yrotation Xrotation
						JOINT relbow
						{
							OFFSET -0.260127 -0.014369 -0.031269
							CHANNELS 3 Zrotation Yrotation Xrotation
							JOINT rwrist
							{
								OFFSET -0.269108 0.006794 -0.006027
								CHANNELS 3 Zrotation Yrotation Xrotation
								End Site
								{
									OFFSET 0.000000 0.000000 0.000000
								}
							}
						}
					}
				}
			}
		}
	}
}
MOTION
Frames: 16
Frame Time: 0.033333
0.619463 0.333748 1.003697 8.582039 -3.035084 84.207647 0.984103 -4.367304 -10.266771 -4.862709 -0.238172 35.516540 0.847909 13.155933 -13.314149 0.000000 -0.000000 0.000000 6.041440 -0.452834 1.994204 0.835818 5.005566 13.254277 -2.000326 -5.773722 -14.353569 0.000000 -0.000000 0.000000 0.302851 3.667879 14.494249 1.189182 0.033722 -2.022677 0.351882 -0.551116 4.123865 1.589425 5.548486 -7.177519 -2.788469 -0.200299 12.680517 -30.011319 6.446027 -0.618476 -55.453724 -4.509327 9.396794 9.849790 -29.479740 5.390516 -4.139417 -3.225448 -4.715951 30.753060 -0.266132 -0.499264 51.863880 6.507597 13.322349 -14.037557 22.480123 -10.296648 4.814667 1.375239 -9.754625 
0.622122 0.312651 1.002072 6.584885 -3.034764 84.700150 1.503514 -4.003761 -11.534819 -3.759417 -0.719267 28.336014 0.286858 13.003810 -13.340798 0.000000 -0.000000 0.000000 6.025173 -1.043046 2.932970 0.792523 6.856900 13.492805 -1.833074 -5.094823 -15.569405 0.000000 -0.000000 0.000000 0.348967 4.260417 14.014890 1.010207 0.105028 -2.017818 0.308300 -0.304669 4.033107 1.643201 6.043541 -7.291072 -2.904276 -0.677581 13.008504 -30.380303 6.621130 -1.042934 -55.416513 -4.097163 9.337021 9.838435 -28.339289 4.849114 -3.798515 -3.168530 -4.145600 30.621158 -0.374642 -0.547066 51.899228 6.848219 13.653362 -14.314652 24.199167 -10.109840 4.785735 1.826062 -9.305091 
0.626717 0.289356 0.999956 5.280249 -3.132396 84.693075 1.231556 -3.515768 -11.721300 -2.474547 -1.922596 20.409637 -0.333843 12.548756 -12.582455 0.000000 -0.000000 0.000000 5.690272 -0.621505 4.987182 0.935612 7.706894 12.972778 -1.830999 -4.991496 -16.532516 0.000000 -0.000000 0.000000 0.373130 3.997428 13.802764 0.783575 0.106212 -1.900979 0.209800 -0.104422 3.921755 1.775426 6.395029 -7.160551 -3.120747 -0.968147 12.997023 -30.746916 6.914802 -1.303257 -55.440974 -3.696701 9.223886 9.941103 -27.349163 4.062887 -3.488549 -3.004605 -3.922080 30.457981 -0.353785 -0.730129 51.959585 7.032110 14.087451 -14.423378 25.666030 -9.948672 4.662411 2.292119 -8.881595 
0.630507 0.266166 0.996976 3.980110 -2.971306 84.888422 1.061505 -2.741090 -11.768702 -1.643041 -4.188801 12.336693 -0.969474 11.562848 -11.881080 0.000000 -0.000000 0.000000 5.691808 -0.163069 6.576073 1.005167 8.447611 12.915142 -1.641289 -4.772381 -17.576661 0.000000 -0.000000 0.000000 0.494019 3.695716 13.514618 0.699085 0.142655 -1.882285 0.164137 -0.001096 3.728970 1.965883 6.931721 -7.035324 -3.513830 -1.183586 13.070187 -31.051520 7.117689 -1.473160 -55.461692 -3.219320 9.218673 9.960694 -26.621141 3.424231 -3.101608 -3.011450 -3.995149 30.398760 -0.381218 -0.816825 52.037745 7.158995 14.387496 -14.727234 27.057878 -10.119002 4.423182 2.732309 -8.913477 
0.633803 0.243154 0.994026 1.801949 -2.551987 85.146643 1.492506 -2.038104 -11.805405 -1.269812 -6.003521 5.389886 -2.411089 9.775596 -11.257372 0.000000 -0.000000 0.000000 5.534074 -0.803317 7.488258 1.351617 10.005136 13.807573 -1.348743 -3.510267 -18.614884 0.000000 -0.000000 0.000000 0.824640 3.888849 13.377528 0.711054 0.246128 -1.758451 0.205216 0.278151 3.365891 1.878344 7.479658 -7.082241 -3.669757 -1.627908 13.024163 -31.362281 7.182082 -1.837902 -55.610573 -2.656951 9.237712 10.093321 -25.959390 2.887384 -2.540107 -3.147554 -3.896567 30.205577 -0.310379 -0.707185 52.016095 7.360149 14.284240 -14.839612 28.227627 -10.162733 4.347730 3.039748 -9.047096 
0.637353 0.218201 0.990483 -0.395895 -2.572130 85.177081 1.693366 -2.294878 -11.430346 -1.306141 -6.969025 0.114081 -3.919805 7.916335 -11.056263 0.000000 -0.000000 0.000000 5.030370 -0.640984 8.916358 1.491314 11.307148 14.461051 -1.063941 -2.697348 -19.724317 0.000000 -0.000000 0.000000 0.644038 4.264793 13.170978 0.755133 0.210011 -1.326599 0.223950 0.572468 3.084528 1.956069 7.936255 -7.087847 -3.785561 -2.134904 12.791397 -31.468176 7.140549 -1.977849 -55.725360 -2.324642 9.335699 10.192326 -25.485937 2.566691 -2.255809 -3.236885 -3.921302 30.266766 -0.160760 -0.665692 52.116290 7.557325 14.217169 -15.277113 28.890823 -10.517333 4.245759 3.194741 -9.242815 
0.641017 0.192978 0.986869 -2.535447 -2.402344 85.021922 1.898531 -3.159422 -11.762441 -1.357268 -8.954280 -0.067252 -4.735444 6.657410 -11.385362 0.000000 -0.000000 0.000000 4.655283 -0.591355 10.286797 1.710564 12.323269 15.504811 -0.861580 -2.121726 -20.644843 0.000000 -0.000000 0.000000 0.790544 4.574081 13.423947 0.732535 0.189642 -1.296936 0.162956 0.716651 3.017616 2.091757 8.173398 -7.265050 -3.959241 -2.436980 12.871465 -31.568042 7.098028 -2.165464 -55.863261 -2.058804 9.469604 10.485771 -25.189377 2.326562 -2.043789 -3.312640 -4.285714 30.282184 0.029172 -0.799983 52.160135 7.637856 14.252945 -15.295450 29.170527 -10.690855 4.197073 3.342663 -9.651149 
0.644913 0.166164 0.983872 -4.887146 -2.272805 84.816418 2.137621 -5.191967 -12.170544 -1.957790 -11.505858 3.083196 -4.886405 5.638869 -11.827745 0.000000 -0.000000 0.000000 4.193959 -0.562894 11.578679 1.869194 13.648528 16.984632 -0.781377 -1.792399 -21.125847 0.000000 -0.000000 0.000000 0.914635 5.192363 13.312419 0.851930 0.083985 -0.778304 0.072358 0.777590 2.966564 2.054684 8.073284 -7.228566 -3.994147 -2.701986 12.562409 -31.692431 6.990083 -2.312676 -55.895746 -1.851201 9.696030 10.817773 -25.138920 2.200985 -1.965575 -3.171069 -4.594895 30.356085 0.376349 -0.766035 52.034320 7.496215 14.175082 -15.630606 29.182030 -10.708204 4.222439 3.120865 -9.785311 
0.647823 0.137712 0.981423 -7.663291 -2.303196 84.499624 1.869466 -6.810189 -11.636758 -2.947117 -15.134449 6.665014 -5.187630 4.452868 -10.596407 0.000000 -0.000000 0.000000 3.700373 -0.080755 12.464261 2.103631 14.863474 19.448231 0.005675 -1.400022 -21.148275 0.000000 -0.000000 0.000000 0.513681 5.701629 12.975316 1.021596 0.428465 -0.126212 0.109409 1.009278 3.075211 2.492631 8.010335 -7.187055 -4.104318 -3.131593 12.704839 -31.817728 7.075310 -2.770124 -55.679391 -1.771720 10.099857 10.900000 -24.986544 2.248981 -2.014142 -3.044702 -4.939662 30.722000 0.446404 -0.914029 51.746633 7.484524 14.290702 -15.553608 28.501257 -10.952296 4.446589 2.904624 -9.727461 
0.651412 0.109665 0.980801 -10.647729 -2.741018 84.766007 1.034748 -7.863333 -11.673768 -3.408630 -15.803343 10.378663 -3.792579 4.735155 -6.637728 0.000000 -0.000000 0.000000 2.978655 1.151143 11.349890 2.555887 15.400701 24.246446 0.241968 -1.086162 -20.382313 0.000000 -0.000000 0.000000 -0.468292 6.034778 12.279891 1.181972 0.933190 0.062516 0.080886 1.263541 3.111604 2.747476 7.346121 -6.749959 -3.945382 -3.715580 12.652393 -31.876823 7.505964 -3.056005 -55.405832 -1.861167 10.320849 11.029416 -24.796464 2.173646 -2.627839 -2.714066 -5.192856 31.242797 0.322213 -0.964686 51.649267 7.528435 14.512775 -15.492361 27.075137 -11.457929 4.807850 2.514220 -9.730692 
0.655051 0.081497 0.982441 -13.187240 -3.067155 84.782458 0.280996 -8.324111 -10.935424 -3.565929 -13.682159 12.233383 -1.771715 6.599612 -6.652937 0.000000 -0.000000 0.000000 2.401954 2.369735 9.362467 3.281645 14.627021 30.772961 1.504293 -0.811612 -17.559467 0.000000 -0.000000 0.000000 -1.061166 5.814864 12.110353 1.209091 1.210286 -0.109096 -0.270282 1.177318 3.228196 3.358478 6.272937 -6.261452 -3.812162 -4.115622 12.739193 -31.510837 7.946634 -2.752919 -55.442012 -2.102545 10.221086 11.476176 -24.763400 1.919164 -3.241924 -2.433991 -5.521015 31.666157 0.341761 -1.108038 51.960998 7.575857 14.903991 -15.242828 25.126955 -11.806632 4.927518 2.126014 -9.505488 
0.657423 0.053665 0.985016 -15.501951 -3.295387 84.573898 -0.669353 -7.673536 -8.995118 -3.616044 -13.140630 12.598680 0.791552 7.751327 -6.966858 0.000000 -0.000000 0.000000 1.646146 3.052703 6.681558 4.271333 13.087708 38.158202 3.176013 -0.223670 -11.612080 0.000000 -0.000000 0.000000 -1.763505 4.939224 11.902261 1.311410 1.449378 0.042888 -0.403579 1.090033 3.338074 3.625516 5.055866 -5.691567 -3.698115 -4.060416 12.407606 -31.040660 8.085053 -2.216976 -55.443214 -2.321775 9.888181 11.823184 -24.777024 1.680828 -4.176766 -2.193055 -6.026915 31.740253 0.568703 -0.941823 52.494895 7.667786 14.928942 -15.198844 23.288904 -12.454410 5.599492 1.626385 -9.349707 
0.659001 0.028283 0.987552 -17.626158 -3.388943 84.405473 -1.175002 -6.446978 -6.944822 -3.955105 -12.826330 12.318982 2.544165 8.499739 -7.573827 0.000000 -0.000000 0.000000 0.595229 2.850452 2.780607 4.865105 10.101002 46.223287 3.749633 -1.131451 -4.937869 0.000000 -0.000000 0.000000 -2.186576 3.755481 11.991454 1.352161 1.662716 -0.034539 -0.642473 0.806313 3.383964 3.827903 3.740433 -5.424734 -3.634585 -4.094718 12.368302 -30.458853 8.141359 -1.564982 -55.090845 -2.583082 9.611713 11.678821 -25.075442 2.099067 -4.643219 -2.101425 -6.589130 31.992731 0.608928 -0.983672 52.745457 7.794367 14.975992 -14.780422 22.006566 -12.873127 5.594518 1.412271 -9.034952 
0.658916 0.005014 0.989711 -19.789138 -3.320820 84.263844 -1.092252 -5.281500 -4.800423 -4.476705 -12.167861 11.689393 3.453219 8.924559 -8.613367 0.000000 -0.000000 0.000000 -0.238189 2.359126 -1.311003 4.352987 6.431797 53.153712 3.286040 -4.390539 -1.281347 0.000000 -0.000000 0.000000 -2.752027 2.792790 12.112705 1.607818 1.755157 -0.062741 -0.521856 0.295376 3.484671 4.078633 2.734596 -5.429435 -3.701710 -4.219017 12.338513 -30.133951 8.086315 -0.827858 -54.509686 -3.171227 9.169967 11.313010 -25.511162 2.632574 -5.229274 -2.066671 -6.902793 32.297831 0.548026 -1.216214 52.553145 7.701900 15.125001 -14.535356 21.793782 -13.127367 6.004996 1.442573 -8.544548 
0.658187 -0.016450 0.991789 -21.642149 -3.070756 84.125434 -1.127431 -3.975484 -2.858973 -4.537105 -11.721708 11.188239 3.884780 9.117207 -9.643695 0.000000 -0.000000 0.000000 -0.838722 1.279032 -5.178051 1.785685 2.171152 58.074743 1.071933 -9.475728 -2.462609 0.000000 -0.000000 0.000000 -3.060229 1.757704 12.395503 1.810830 1.606294 -0.316245 -0.347721 -0.392698 3.766231 4.373461 1.717387 -5.650746 -3.888901 -4.644404 12.299442 -29.905988 7.897807 -0.160244 -53.824255 -3.840918 8.538319 11.063528 -26.052098 3.194682 -5.067911 -1.800331 -7.315486 32.654615 0.612657 -1.323159 52.212779 7.392281 15.114822 -14.625377 22.505770 -13.249388 5.705509 1.266994 -8.009032 
0.656845 -0.036481 0.993860 -23.686631 -2.669848 83.949054 -1.064206 -2.418153 -0.762530 -4.268701 -11.568639 10.323110 3.984057 9.478803 -10.410152 0.000000 -0.000000 0.000000 -1.241294 0.442488 -8.497083 -0.613722 -1.162317 60.829374 -0.279451 -11.966885 -3.785189 0.000000 -0.000000 0.000000 -2.819562 0.760925 13.102977 1.789400 1.651849 -0.831064 -0.323683 -1.065245 3.880414 4.430715 1.168946 -5.659359 -3.990061 -5.046479 12.314126 -29.395749 7.598719 0.165585 -53.256685 -4.452428 7.946578 10.845981 -26.241481 3.372585 -5.010386 -1.672495 -7.291525 32.670189 0.461020 -1.623131 52.389776 6.976601 14.901530 -14.862627 23.186542 -13.439135 5.383320 1.515571 -7.787026 
